<?xml version="1.0" encoding="UTF-8"?>
<svg id="Layer_1" data-name="Layer 1" xmlns="http://www.w3.org/2000/svg" xmlns:xlink="http://www.w3.org/1999/xlink" viewBox="0 0 119.2271 94.4941">
  <a xlink:href="1.31647058823529">
    <path id="logoMark" d="m105.7075,46.0442c-1.0695,0-2.1234-.164-3.1302-.4854l-.1264-.0377c-.1124-.0323-.2319-.0699-.3652-.1157-.299-.1022-.6241-.2514-.9893-.4504l-.1194-.0646c-1.3328-.6952-2.5183-1.6957-3.4309-2.8951-2.7859-3.6588-2.778-8.7605.0218-12.4073,1.1375-1.4831,2.6525-2.6275,4.3819-3.3106l.1708-.0712c.5213-.2205.9004-.3402,1.1977-.3779l.3277-.0538c.6755-.1372,1.3685-.2071,2.0632-.2071,4.177,0,7.6655-1.2895,10.087-3.7274,2.2411-2.2563,3.4091-5.3625,3.3795-8.9837V0h-25.5146v8.4741c0,1.6499-.0044,3.2998,0,4.9498.0061,3.3361-1.8872,7.8904-5.3582,9.0496-2.2098.7382-4.9513-.3644-7.2985-.0941-1.9286.2219-3.7993.8807-5.4399,1.9175-3.2974,2.0829-5.5247,5.6261-5.9527,9.5028-.1655,1.4953-.0727,2.61-.004,3.4249.0753.9077.0982,1.1807-.2194,2.0856-.6245,1.7669-1.9596,3.4088-3.7577,4.6216-1.798,1.2129-3.8652,1.8798-5.8221,1.8798l-.1911-.0027-.1912.0027c-1.9569,0-4.0255-.6669-5.8221-1.8798-1.7981-1.2115-3.1331-2.8547-3.7577-4.6216-.3175-.905-.296-1.1793-.2193-2.0856.0673-.8135.1601-1.9282-.0041-3.4249-.428-3.8767-2.6554-7.4185-5.9527-9.5028-1.6406-1.0368-3.5113-1.6956-5.4399-1.9175-2.3471-.2703-5.0886.8324-7.2986.0941-3.471-1.1591-5.3646-5.7135-5.3578-9.0496.004-1.65,0-3.2999,0-4.9498V0H.0552v12.8564c-.0296,3.6212,1.1399,6.7274,3.3794,8.9837,2.4212,2.4393,5.9097,3.7274,10.0872,3.7274.6945,0,1.3875.0699,2.0632.2071l.3271.0538c.2974.039.6769.1586,1.1978.3779l.1708.0712c1.7295.6831,3.2449,1.8275,4.3821,3.3106,2.7994,3.6467,2.8075,8.7484.0215,12.4073-.9125,1.1994-2.0995,2.1999-3.4305,2.8951l-.1199.0646c-.3647.199-.6904.3469-.9892.4504-.1333.0458-.253.0834-.3647.1157l-.1266.0377c-1.0067.3227-2.0605.4854-3.1304.4854-8.0886,0-13.5232,4.9699-13.5232,12.3669,0,5.774,2.6352,8.77,4.8451,10.2666,2.6971,1.8261,5.95,2.3437,9.0643,2.6288l.2154.0242c.8263.1076,1.5235.277,2.3243.5648l.3862.1465.0659.0242c2.0969.7154,3.8532,2.177,4.9474,4.116.6178,1.0959,1.0457,2.5307,1.2046,4.0381.0619.593.1036,1.1672.144,1.7346.0309.4317.0659.9157.1131,1.4024v11.1367h25.3344v-13.1133c0-3.3698-1.284-6.6386-3.6689-9.0214-.0861-.086-.1722-.1694-.2611-.2528-.1898-.1775-.3647-.3281-.5047-.4478l-.0861-.074c-2.7456-2.3773-6.3161-2.4405-8.9244-2.4876h-.0282c-.4361-.0081-.8493-.0161-1.214-.0336l-.3916-.0605-.8385-.1869-.79-.2435-.852-.3388c-.8922-.4047-1.7254-.9319-2.4642-1.5599l-.1655-.1425c-2.3607-2.1084-3.5316-4.7077-3.58-7.9443.0067-2.3128.7469-4.5046,2.1413-6.3401,1.3594-1.7884,3.2852-3.1196,5.4225-3.749,2.1641-.6361,6.2004-.6522,8.1465-.0309,3.5463,1.1309,6.0631,4.3823,6.2609,8.0909.0161.3066.004.628-.0094,1.0044-.0404,1.0878-.0956,2.5778.5329,4.4616,1.7765,5.2388,6.6902,8.774,12.2432,8.7982,5.5531-.0255,10.4668-3.5594,12.2433-8.7982.6285-1.8825.5733-3.3724.5329-4.4616-.0134-.3765-.0255-.6992-.0094-1.0044.1979-3.7086,2.7132-6.96,6.2609-8.0909,1.9474-.6212,5.9823-.6051,8.1468.0309,2.1365.6293,4.0637,1.9619,5.4218,3.749,1.3947,1.8355,2.1347,4.0273,2.1417,6.3401-.0488,3.2366-1.2195,5.8345-3.5799,7.9443l-.1656.1425c-.7392.6266-1.5716,1.1551-2.4642,1.5599l-.8525.3388-.7897.2435-.8383.1869-.3916.0605c-.3634.0175-.778.0255-1.214.0336h-.0283c-2.6069.0471-6.1788.1103-8.9243,2.4876l-.0861.074c-.14.1197-.3149.2703-.5047.4478-.0888.0833-.1749.1681-.2612.2528-2.3848,2.3828-3.6688,5.6516-3.6688,9.0214v13.1133h25.3348v-11.1367c.0471-.4854.0819-.9708.1125-1.4024.041-.5661.0819-1.1403.1438-1.7346.1595-1.5074.5875-2.9422,1.2047-4.0381,1.0931-1.939,2.8504-3.4007,4.9476-4.116l.0662-.0242.3862-.1465c.8002-.2864,1.4975-.4559,2.3239-.5648l.2153-.0242c3.1145-.285,6.3675-.8027,9.0645-2.6288,2.2097-1.4967,4.8456-4.4926,4.8456-10.2666,0-7.397-5.4349-12.3669-13.5239-12.3669h.0044Z" style="fill: #fff; stroke-width: 0px;"/>
  </a>
</svg>